G04 #@! TF.GenerationSoftware,KiCad,Pcbnew,(5.1.5)-3*
G04 #@! TF.CreationDate,2019-12-07T13:31:04+02:00*
G04 #@! TF.ProjectId,template,74656d70-6c61-4746-952e-6b696361645f,A*
G04 #@! TF.SameCoordinates,Original*
G04 #@! TF.FileFunction,Legend,Top*
G04 #@! TF.FilePolarity,Positive*
%FSLAX46Y46*%
G04 Gerber Fmt 4.6, Leading zero omitted, Abs format (unit mm)*
G04 Created by KiCad (PCBNEW (5.1.5)-3) date 2019-12-07 13:31:04*
%MOMM*%
%LPD*%
G04 APERTURE LIST*
%ADD10C,0.200000*%
%ADD11C,0.120000*%
%ADD12C,0.100000*%
%ADD13C,0.150000*%
G04 APERTURE END LIST*
D10*
X131101000Y-87200920D02*
X128701000Y-87200920D01*
X128701000Y-87200920D02*
X128701000Y-84800920D01*
X128701000Y-84800920D02*
X129101000Y-84800920D01*
X135101000Y-87200920D02*
X132901000Y-87200920D01*
X139101000Y-87200920D02*
X136901000Y-87200920D01*
X133101000Y-84800920D02*
X130901000Y-84800920D01*
X137101000Y-84800920D02*
X134901000Y-84800920D01*
X140901000Y-84800920D02*
X138901000Y-84800920D01*
X143101000Y-87200920D02*
X140901000Y-87200920D01*
X145101000Y-84800920D02*
X142701000Y-84800920D01*
X147101000Y-87200920D02*
X144901000Y-87200920D01*
X149301000Y-87200920D02*
X148901000Y-87200920D01*
X149301000Y-87200920D02*
X149301000Y-84800920D01*
X149301000Y-84800920D02*
X146901000Y-84800920D01*
X131101000Y-109200920D02*
X128701000Y-109200920D01*
X128701000Y-109200920D02*
X128701000Y-106800920D01*
X128701000Y-106800920D02*
X129101000Y-106800920D01*
X135101000Y-109200920D02*
X132901000Y-109200920D01*
X139101000Y-109200920D02*
X136901000Y-109200920D01*
X133101000Y-106800920D02*
X130901000Y-106800920D01*
X137101000Y-106800920D02*
X134901000Y-106800920D01*
X140901000Y-106800920D02*
X138901000Y-106800920D01*
X143101000Y-109200920D02*
X140901000Y-109200920D01*
X145101000Y-106800920D02*
X142701000Y-106800920D01*
X147101000Y-109200920D02*
X144901000Y-109200920D01*
X149301000Y-109200920D02*
X148901000Y-109200920D01*
X149301000Y-109200920D02*
X149301000Y-106800920D01*
X149301000Y-106800920D02*
X146901000Y-106800920D01*
D11*
X135025000Y-95280920D02*
X133325000Y-95280920D01*
X133325000Y-95280920D02*
X133325000Y-97830920D01*
X135025000Y-95280920D02*
X135025000Y-97830920D01*
X144677000Y-95246920D02*
X144677000Y-97796920D01*
X142977000Y-95246920D02*
X142977000Y-97796920D01*
X144677000Y-95246920D02*
X142977000Y-95246920D01*
X128573000Y-98804920D02*
X132173000Y-98804920D01*
X132173000Y-98804920D02*
X132173000Y-94454920D01*
X132173000Y-94454920D02*
X128573000Y-94454920D01*
X128573000Y-94454920D02*
X128573000Y-98804920D01*
X130573000Y-99114920D02*
X132483000Y-99114920D01*
X132483000Y-99114920D02*
X132483000Y-97204920D01*
X130873000Y-98804920D02*
X130873000Y-98504920D01*
X130873000Y-98504920D02*
X131873000Y-98504920D01*
X131873000Y-98504920D02*
X131873000Y-94754920D01*
X131873000Y-94754920D02*
X130873000Y-94754920D01*
X130873000Y-94754920D02*
X130873000Y-94454920D01*
X130123000Y-98804920D02*
X130123000Y-98504920D01*
X130123000Y-98504920D02*
X129023000Y-98504920D01*
X129023000Y-98504920D02*
X129023000Y-98204920D01*
X129023000Y-98204920D02*
X128573000Y-98204920D01*
X130123000Y-94454920D02*
X130123000Y-94754920D01*
X130123000Y-94754920D02*
X129023000Y-94754920D01*
X129023000Y-94754920D02*
X129023000Y-95054920D01*
X129023000Y-95054920D02*
X128573000Y-95054920D01*
X129023000Y-98204920D02*
X129023000Y-97004920D01*
X129023000Y-97004920D02*
X128723000Y-97004920D01*
X128723000Y-97004920D02*
X128723000Y-96254920D01*
X128723000Y-96254920D02*
X129023000Y-96254920D01*
X129023000Y-96254920D02*
X129023000Y-95054920D01*
X148979000Y-97238920D02*
X148979000Y-98438920D01*
X149279000Y-97238920D02*
X148979000Y-97238920D01*
X149279000Y-96488920D02*
X149279000Y-97238920D01*
X148979000Y-96488920D02*
X149279000Y-96488920D01*
X148979000Y-95288920D02*
X148979000Y-96488920D01*
X148979000Y-98438920D02*
X149429000Y-98438920D01*
X148979000Y-98738920D02*
X148979000Y-98438920D01*
X147879000Y-98738920D02*
X148979000Y-98738920D01*
X147879000Y-99038920D02*
X147879000Y-98738920D01*
X148979000Y-95288920D02*
X149429000Y-95288920D01*
X148979000Y-94988920D02*
X148979000Y-95288920D01*
X147879000Y-94988920D02*
X148979000Y-94988920D01*
X147879000Y-94688920D02*
X147879000Y-94988920D01*
X147129000Y-98738920D02*
X147129000Y-99038920D01*
X146129000Y-98738920D02*
X147129000Y-98738920D01*
X146129000Y-94988920D02*
X146129000Y-98738920D01*
X147129000Y-94988920D02*
X146129000Y-94988920D01*
X147129000Y-94688920D02*
X147129000Y-94988920D01*
X145519000Y-94378920D02*
X145519000Y-96288920D01*
X147429000Y-94378920D02*
X145519000Y-94378920D01*
X149429000Y-99038920D02*
X149429000Y-94688920D01*
X145829000Y-99038920D02*
X149429000Y-99038920D01*
X145829000Y-94688920D02*
X145829000Y-99038920D01*
X149429000Y-94688920D02*
X145829000Y-94688920D01*
X134415000Y-99296920D02*
X134415000Y-100226920D01*
X134415000Y-102456920D02*
X134415000Y-101526920D01*
X134415000Y-102456920D02*
X136575000Y-102456920D01*
X134415000Y-99296920D02*
X135875000Y-99296920D01*
X143587000Y-102644920D02*
X142127000Y-102644920D01*
X143587000Y-99484920D02*
X141427000Y-99484920D01*
X143587000Y-99484920D02*
X143587000Y-100414920D01*
X143587000Y-102644920D02*
X143587000Y-101714920D01*
X147381000Y-103442141D02*
X147381000Y-103767699D01*
X148401000Y-103442141D02*
X148401000Y-103767699D01*
X137475000Y-101227699D02*
X137475000Y-100902141D01*
X138495000Y-101227699D02*
X138495000Y-100902141D01*
X144587000Y-103467641D02*
X144587000Y-103793199D01*
X145607000Y-103467641D02*
X145607000Y-103793199D01*
X140527000Y-100902141D02*
X140527000Y-101227699D01*
X139507000Y-100902141D02*
X139507000Y-101227699D01*
D12*
X138631952Y-86127110D02*
X138631952Y-85627110D01*
X138822428Y-85627110D01*
X138870047Y-85650920D01*
X138893857Y-85674729D01*
X138917666Y-85722348D01*
X138917666Y-85793777D01*
X138893857Y-85841396D01*
X138870047Y-85865205D01*
X138822428Y-85889015D01*
X138631952Y-85889015D01*
X139393857Y-86127110D02*
X139108142Y-86127110D01*
X139251000Y-86127110D02*
X139251000Y-85627110D01*
X139203380Y-85698539D01*
X139155761Y-85746158D01*
X139108142Y-85769967D01*
D10*
X129848619Y-88262824D02*
X129391476Y-88262824D01*
X129620047Y-88262824D02*
X129620047Y-87462824D01*
X129543857Y-87577110D01*
X129467666Y-87653300D01*
X129391476Y-87691396D01*
X130343857Y-87462824D02*
X130420047Y-87462824D01*
X130496238Y-87500920D01*
X130534333Y-87539015D01*
X130572428Y-87615205D01*
X130610523Y-87767586D01*
X130610523Y-87958062D01*
X130572428Y-88110443D01*
X130534333Y-88186634D01*
X130496238Y-88224729D01*
X130420047Y-88262824D01*
X130343857Y-88262824D01*
X130267666Y-88224729D01*
X130229571Y-88186634D01*
X130191476Y-88110443D01*
X130153380Y-87958062D01*
X130153380Y-87767586D01*
X130191476Y-87615205D01*
X130229571Y-87539015D01*
X130267666Y-87500920D01*
X130343857Y-87462824D01*
X148229571Y-84362824D02*
X147772428Y-84362824D01*
X148001000Y-84362824D02*
X148001000Y-83562824D01*
X147924809Y-83677110D01*
X147848619Y-83753300D01*
X147772428Y-83791396D01*
D12*
X138631952Y-108127110D02*
X138631952Y-107627110D01*
X138822428Y-107627110D01*
X138870047Y-107650920D01*
X138893857Y-107674729D01*
X138917666Y-107722348D01*
X138917666Y-107793777D01*
X138893857Y-107841396D01*
X138870047Y-107865205D01*
X138822428Y-107889015D01*
X138631952Y-107889015D01*
X139108142Y-107674729D02*
X139131952Y-107650920D01*
X139179571Y-107627110D01*
X139298619Y-107627110D01*
X139346238Y-107650920D01*
X139370047Y-107674729D01*
X139393857Y-107722348D01*
X139393857Y-107769967D01*
X139370047Y-107841396D01*
X139084333Y-108127110D01*
X139393857Y-108127110D01*
D10*
X129848619Y-110262824D02*
X129391476Y-110262824D01*
X129620047Y-110262824D02*
X129620047Y-109462824D01*
X129543857Y-109577110D01*
X129467666Y-109653300D01*
X129391476Y-109691396D01*
X130343857Y-109462824D02*
X130420047Y-109462824D01*
X130496238Y-109500920D01*
X130534333Y-109539015D01*
X130572428Y-109615205D01*
X130610523Y-109767586D01*
X130610523Y-109958062D01*
X130572428Y-110110443D01*
X130534333Y-110186634D01*
X130496238Y-110224729D01*
X130420047Y-110262824D01*
X130343857Y-110262824D01*
X130267666Y-110224729D01*
X130229571Y-110186634D01*
X130191476Y-110110443D01*
X130153380Y-109958062D01*
X130153380Y-109767586D01*
X130191476Y-109615205D01*
X130229571Y-109539015D01*
X130267666Y-109500920D01*
X130343857Y-109462824D01*
X148229571Y-106362824D02*
X147772428Y-106362824D01*
X148001000Y-106362824D02*
X148001000Y-105562824D01*
X147924809Y-105677110D01*
X147848619Y-105753300D01*
X147772428Y-105791396D01*
D13*
X134627380Y-94691015D02*
X133627380Y-94691015D01*
X133627380Y-94452920D01*
X133675000Y-94310062D01*
X133770238Y-94214824D01*
X133865476Y-94167205D01*
X134055952Y-94119586D01*
X134198809Y-94119586D01*
X134389285Y-94167205D01*
X134484523Y-94214824D01*
X134579761Y-94310062D01*
X134627380Y-94452920D01*
X134627380Y-94691015D01*
X134627380Y-93167205D02*
X134627380Y-93738634D01*
X134627380Y-93452920D02*
X133627380Y-93452920D01*
X133770238Y-93548158D01*
X133865476Y-93643396D01*
X133913095Y-93738634D01*
X144279380Y-94691015D02*
X143279380Y-94691015D01*
X143279380Y-94452920D01*
X143327000Y-94310062D01*
X143422238Y-94214824D01*
X143517476Y-94167205D01*
X143707952Y-94119586D01*
X143850809Y-94119586D01*
X144041285Y-94167205D01*
X144136523Y-94214824D01*
X144231761Y-94310062D01*
X144279380Y-94452920D01*
X144279380Y-94691015D01*
X143374619Y-93738634D02*
X143327000Y-93691015D01*
X143279380Y-93595777D01*
X143279380Y-93357681D01*
X143327000Y-93262443D01*
X143374619Y-93214824D01*
X143469857Y-93167205D01*
X143565095Y-93167205D01*
X143707952Y-93214824D01*
X144279380Y-93786253D01*
X144279380Y-93167205D01*
X127925380Y-96215015D02*
X126925380Y-96215015D01*
X126925380Y-95834062D01*
X126973000Y-95738824D01*
X127020619Y-95691205D01*
X127115857Y-95643586D01*
X127258714Y-95643586D01*
X127353952Y-95691205D01*
X127401571Y-95738824D01*
X127449190Y-95834062D01*
X127449190Y-96215015D01*
X126925380Y-95310253D02*
X126925380Y-94691205D01*
X127306333Y-95024539D01*
X127306333Y-94881681D01*
X127353952Y-94786443D01*
X127401571Y-94738824D01*
X127496809Y-94691205D01*
X127734904Y-94691205D01*
X127830142Y-94738824D01*
X127877761Y-94786443D01*
X127925380Y-94881681D01*
X127925380Y-95167396D01*
X127877761Y-95262634D01*
X127830142Y-95310253D01*
X150981380Y-97597015D02*
X149981380Y-97597015D01*
X149981380Y-97216062D01*
X150029000Y-97120824D01*
X150076619Y-97073205D01*
X150171857Y-97025586D01*
X150314714Y-97025586D01*
X150409952Y-97073205D01*
X150457571Y-97120824D01*
X150505190Y-97216062D01*
X150505190Y-97597015D01*
X150314714Y-96168443D02*
X150981380Y-96168443D01*
X149933761Y-96406539D02*
X150648047Y-96644634D01*
X150648047Y-96025586D01*
X135079761Y-103924539D02*
X134984523Y-103876920D01*
X134889285Y-103781681D01*
X134746428Y-103638824D01*
X134651190Y-103591205D01*
X134555952Y-103591205D01*
X134603571Y-103829300D02*
X134508333Y-103781681D01*
X134413095Y-103686443D01*
X134365476Y-103495967D01*
X134365476Y-103162634D01*
X134413095Y-102972158D01*
X134508333Y-102876920D01*
X134603571Y-102829300D01*
X134794047Y-102829300D01*
X134889285Y-102876920D01*
X134984523Y-102972158D01*
X135032142Y-103162634D01*
X135032142Y-103495967D01*
X134984523Y-103686443D01*
X134889285Y-103781681D01*
X134794047Y-103829300D01*
X134603571Y-103829300D01*
X135984523Y-103829300D02*
X135413095Y-103829300D01*
X135698809Y-103829300D02*
X135698809Y-102829300D01*
X135603571Y-102972158D01*
X135508333Y-103067396D01*
X135413095Y-103115015D01*
X141445761Y-96024539D02*
X141350523Y-95976920D01*
X141255285Y-95881681D01*
X141112428Y-95738824D01*
X141017190Y-95691205D01*
X140921952Y-95691205D01*
X140969571Y-95929300D02*
X140874333Y-95881681D01*
X140779095Y-95786443D01*
X140731476Y-95595967D01*
X140731476Y-95262634D01*
X140779095Y-95072158D01*
X140874333Y-94976920D01*
X140969571Y-94929300D01*
X141160047Y-94929300D01*
X141255285Y-94976920D01*
X141350523Y-95072158D01*
X141398142Y-95262634D01*
X141398142Y-95595967D01*
X141350523Y-95786443D01*
X141255285Y-95881681D01*
X141160047Y-95929300D01*
X140969571Y-95929300D01*
X141779095Y-95024539D02*
X141826714Y-94976920D01*
X141921952Y-94929300D01*
X142160047Y-94929300D01*
X142255285Y-94976920D01*
X142302904Y-95024539D01*
X142350523Y-95119777D01*
X142350523Y-95215015D01*
X142302904Y-95357872D01*
X141731476Y-95929300D01*
X142350523Y-95929300D01*
X149773380Y-103771586D02*
X149297190Y-104104920D01*
X149773380Y-104343015D02*
X148773380Y-104343015D01*
X148773380Y-103962062D01*
X148821000Y-103866824D01*
X148868619Y-103819205D01*
X148963857Y-103771586D01*
X149106714Y-103771586D01*
X149201952Y-103819205D01*
X149249571Y-103866824D01*
X149297190Y-103962062D01*
X149297190Y-104343015D01*
X149773380Y-102819205D02*
X149773380Y-103390634D01*
X149773380Y-103104920D02*
X148773380Y-103104920D01*
X148916238Y-103200158D01*
X149011476Y-103295396D01*
X149059095Y-103390634D01*
X138437380Y-97675586D02*
X137961190Y-98008920D01*
X138437380Y-98247015D02*
X137437380Y-98247015D01*
X137437380Y-97866062D01*
X137485000Y-97770824D01*
X137532619Y-97723205D01*
X137627857Y-97675586D01*
X137770714Y-97675586D01*
X137865952Y-97723205D01*
X137913571Y-97770824D01*
X137961190Y-97866062D01*
X137961190Y-98247015D01*
X137532619Y-97294634D02*
X137485000Y-97247015D01*
X137437380Y-97151777D01*
X137437380Y-96913681D01*
X137485000Y-96818443D01*
X137532619Y-96770824D01*
X137627857Y-96723205D01*
X137723095Y-96723205D01*
X137865952Y-96770824D01*
X138437380Y-97342253D01*
X138437380Y-96723205D01*
X147073380Y-103771586D02*
X146597190Y-104104920D01*
X147073380Y-104343015D02*
X146073380Y-104343015D01*
X146073380Y-103962062D01*
X146121000Y-103866824D01*
X146168619Y-103819205D01*
X146263857Y-103771586D01*
X146406714Y-103771586D01*
X146501952Y-103819205D01*
X146549571Y-103866824D01*
X146597190Y-103962062D01*
X146597190Y-104343015D01*
X146073380Y-103438253D02*
X146073380Y-102819205D01*
X146454333Y-103152539D01*
X146454333Y-103009681D01*
X146501952Y-102914443D01*
X146549571Y-102866824D01*
X146644809Y-102819205D01*
X146882904Y-102819205D01*
X146978142Y-102866824D01*
X147025761Y-102914443D01*
X147073380Y-103009681D01*
X147073380Y-103295396D01*
X147025761Y-103390634D01*
X146978142Y-103438253D01*
X140469380Y-97421586D02*
X139993190Y-97754920D01*
X140469380Y-97993015D02*
X139469380Y-97993015D01*
X139469380Y-97612062D01*
X139517000Y-97516824D01*
X139564619Y-97469205D01*
X139659857Y-97421586D01*
X139802714Y-97421586D01*
X139897952Y-97469205D01*
X139945571Y-97516824D01*
X139993190Y-97612062D01*
X139993190Y-97993015D01*
X139802714Y-96564443D02*
X140469380Y-96564443D01*
X139421761Y-96802539D02*
X140136047Y-97040634D01*
X140136047Y-96421586D01*
M02*
