G04 #@! TF.GenerationSoftware,KiCad,Pcbnew,(5.1.5)-3*
G04 #@! TF.CreationDate,2019-12-07T13:31:04+02:00*
G04 #@! TF.ProjectId,template,74656d70-6c61-4746-952e-6b696361645f,A*
G04 #@! TF.SameCoordinates,Original*
G04 #@! TF.FileFunction,Soldermask,Bot*
G04 #@! TF.FilePolarity,Negative*
%FSLAX46Y46*%
G04 Gerber Fmt 4.6, Leading zero omitted, Abs format (unit mm)*
G04 Created by KiCad (PCBNEW (5.1.5)-3) date 2019-12-07 13:31:04*
%MOMM*%
%LPD*%
G04 APERTURE LIST*
%ADD10C,1.050000*%
%ADD11R,1.050000X1.050000*%
%ADD12C,0.150000*%
%ADD13O,1.400000X0.900000*%
G04 APERTURE END LIST*
D10*
X130001000Y-86000920D03*
X146001000Y-86000920D03*
D11*
X148001000Y-86000920D03*
D10*
X134001000Y-86000920D03*
X132001000Y-86000920D03*
X144001000Y-86000920D03*
X142001000Y-86000920D03*
X136001000Y-86000920D03*
X138001000Y-86000920D03*
X140001000Y-86000920D03*
X130001000Y-108000920D03*
X146001000Y-108000920D03*
D11*
X148001000Y-108000920D03*
D10*
X134001000Y-108000920D03*
X132001000Y-108000920D03*
X144001000Y-108000920D03*
X142001000Y-108000920D03*
X136001000Y-108000920D03*
X138001000Y-108000920D03*
X140001000Y-108000920D03*
D12*
G36*
X131370054Y-96806003D02*
G01*
X131391895Y-96809243D01*
X131413314Y-96814608D01*
X131434104Y-96822047D01*
X131454064Y-96831488D01*
X131473003Y-96842839D01*
X131490738Y-96855993D01*
X131507099Y-96870821D01*
X131521927Y-96887182D01*
X131535081Y-96904917D01*
X131546432Y-96923856D01*
X131555873Y-96943816D01*
X131563312Y-96964606D01*
X131568677Y-96986025D01*
X131571917Y-97007866D01*
X131573000Y-97029920D01*
X131573000Y-97479920D01*
X131571917Y-97501974D01*
X131568677Y-97523815D01*
X131563312Y-97545234D01*
X131555873Y-97566024D01*
X131546432Y-97585984D01*
X131535081Y-97604923D01*
X131521927Y-97622658D01*
X131507099Y-97639019D01*
X131490738Y-97653847D01*
X131473003Y-97667001D01*
X131454064Y-97678352D01*
X131434104Y-97687793D01*
X131413314Y-97695232D01*
X131391895Y-97700597D01*
X131370054Y-97703837D01*
X131348000Y-97704920D01*
X130398000Y-97704920D01*
X130375946Y-97703837D01*
X130354105Y-97700597D01*
X130332686Y-97695232D01*
X130311896Y-97687793D01*
X130291936Y-97678352D01*
X130272997Y-97667001D01*
X130255262Y-97653847D01*
X130238901Y-97639019D01*
X130224073Y-97622658D01*
X130210919Y-97604923D01*
X130199568Y-97585984D01*
X130190127Y-97566024D01*
X130182688Y-97545234D01*
X130177323Y-97523815D01*
X130174083Y-97501974D01*
X130173000Y-97479920D01*
X130173000Y-97029920D01*
X130174083Y-97007866D01*
X130177323Y-96986025D01*
X130182688Y-96964606D01*
X130190127Y-96943816D01*
X130199568Y-96923856D01*
X130210919Y-96904917D01*
X130224073Y-96887182D01*
X130238901Y-96870821D01*
X130255262Y-96855993D01*
X130272997Y-96842839D01*
X130291936Y-96831488D01*
X130311896Y-96822047D01*
X130332686Y-96814608D01*
X130354105Y-96809243D01*
X130375946Y-96806003D01*
X130398000Y-96804920D01*
X131348000Y-96804920D01*
X131370054Y-96806003D01*
G37*
D13*
X130873000Y-96004920D03*
X147129000Y-97488920D03*
D12*
G36*
X147626054Y-95790003D02*
G01*
X147647895Y-95793243D01*
X147669314Y-95798608D01*
X147690104Y-95806047D01*
X147710064Y-95815488D01*
X147729003Y-95826839D01*
X147746738Y-95839993D01*
X147763099Y-95854821D01*
X147777927Y-95871182D01*
X147791081Y-95888917D01*
X147802432Y-95907856D01*
X147811873Y-95927816D01*
X147819312Y-95948606D01*
X147824677Y-95970025D01*
X147827917Y-95991866D01*
X147829000Y-96013920D01*
X147829000Y-96463920D01*
X147827917Y-96485974D01*
X147824677Y-96507815D01*
X147819312Y-96529234D01*
X147811873Y-96550024D01*
X147802432Y-96569984D01*
X147791081Y-96588923D01*
X147777927Y-96606658D01*
X147763099Y-96623019D01*
X147746738Y-96637847D01*
X147729003Y-96651001D01*
X147710064Y-96662352D01*
X147690104Y-96671793D01*
X147669314Y-96679232D01*
X147647895Y-96684597D01*
X147626054Y-96687837D01*
X147604000Y-96688920D01*
X146654000Y-96688920D01*
X146631946Y-96687837D01*
X146610105Y-96684597D01*
X146588686Y-96679232D01*
X146567896Y-96671793D01*
X146547936Y-96662352D01*
X146528997Y-96651001D01*
X146511262Y-96637847D01*
X146494901Y-96623019D01*
X146480073Y-96606658D01*
X146466919Y-96588923D01*
X146455568Y-96569984D01*
X146446127Y-96550024D01*
X146438688Y-96529234D01*
X146433323Y-96507815D01*
X146430083Y-96485974D01*
X146429000Y-96463920D01*
X146429000Y-96013920D01*
X146430083Y-95991866D01*
X146433323Y-95970025D01*
X146438688Y-95948606D01*
X146446127Y-95927816D01*
X146455568Y-95907856D01*
X146466919Y-95888917D01*
X146480073Y-95871182D01*
X146494901Y-95854821D01*
X146511262Y-95839993D01*
X146528997Y-95826839D01*
X146547936Y-95815488D01*
X146567896Y-95806047D01*
X146588686Y-95798608D01*
X146610105Y-95793243D01*
X146631946Y-95790003D01*
X146654000Y-95788920D01*
X147604000Y-95788920D01*
X147626054Y-95790003D01*
G37*
M02*
