G04 #@! TF.GenerationSoftware,KiCad,Pcbnew,(5.1.5)-3*
G04 #@! TF.CreationDate,2019-12-07T13:31:04+02:00*
G04 #@! TF.ProjectId,template,74656d70-6c61-4746-952e-6b696361645f,A*
G04 #@! TF.SameCoordinates,Original*
G04 #@! TF.FileFunction,Copper,L2,Bot*
G04 #@! TF.FilePolarity,Positive*
%FSLAX46Y46*%
G04 Gerber Fmt 4.6, Leading zero omitted, Abs format (unit mm)*
G04 Created by KiCad (PCBNEW (5.1.5)-3) date 2019-12-07 13:31:04*
%MOMM*%
%LPD*%
G04 APERTURE LIST*
%ADD10C,1.050000*%
%ADD11R,1.050000X1.050000*%
%ADD12C,0.150000*%
%ADD13O,1.400000X0.900000*%
%ADD14C,0.635000*%
%ADD15C,0.254000*%
G04 APERTURE END LIST*
D10*
X130001000Y-86000920D03*
X146001000Y-86000920D03*
D11*
X148001000Y-86000920D03*
D10*
X134001000Y-86000920D03*
X132001000Y-86000920D03*
X144001000Y-86000920D03*
X142001000Y-86000920D03*
X136001000Y-86000920D03*
X138001000Y-86000920D03*
X140001000Y-86000920D03*
X130001000Y-108000920D03*
X146001000Y-108000920D03*
D11*
X148001000Y-108000920D03*
D10*
X134001000Y-108000920D03*
X132001000Y-108000920D03*
X144001000Y-108000920D03*
X142001000Y-108000920D03*
X136001000Y-108000920D03*
X138001000Y-108000920D03*
X140001000Y-108000920D03*
G04 #@! TA.AperFunction,ComponentPad*
D12*
G36*
X131370054Y-96806003D02*
G01*
X131391895Y-96809243D01*
X131413314Y-96814608D01*
X131434104Y-96822047D01*
X131454064Y-96831488D01*
X131473003Y-96842839D01*
X131490738Y-96855993D01*
X131507099Y-96870821D01*
X131521927Y-96887182D01*
X131535081Y-96904917D01*
X131546432Y-96923856D01*
X131555873Y-96943816D01*
X131563312Y-96964606D01*
X131568677Y-96986025D01*
X131571917Y-97007866D01*
X131573000Y-97029920D01*
X131573000Y-97479920D01*
X131571917Y-97501974D01*
X131568677Y-97523815D01*
X131563312Y-97545234D01*
X131555873Y-97566024D01*
X131546432Y-97585984D01*
X131535081Y-97604923D01*
X131521927Y-97622658D01*
X131507099Y-97639019D01*
X131490738Y-97653847D01*
X131473003Y-97667001D01*
X131454064Y-97678352D01*
X131434104Y-97687793D01*
X131413314Y-97695232D01*
X131391895Y-97700597D01*
X131370054Y-97703837D01*
X131348000Y-97704920D01*
X130398000Y-97704920D01*
X130375946Y-97703837D01*
X130354105Y-97700597D01*
X130332686Y-97695232D01*
X130311896Y-97687793D01*
X130291936Y-97678352D01*
X130272997Y-97667001D01*
X130255262Y-97653847D01*
X130238901Y-97639019D01*
X130224073Y-97622658D01*
X130210919Y-97604923D01*
X130199568Y-97585984D01*
X130190127Y-97566024D01*
X130182688Y-97545234D01*
X130177323Y-97523815D01*
X130174083Y-97501974D01*
X130173000Y-97479920D01*
X130173000Y-97029920D01*
X130174083Y-97007866D01*
X130177323Y-96986025D01*
X130182688Y-96964606D01*
X130190127Y-96943816D01*
X130199568Y-96923856D01*
X130210919Y-96904917D01*
X130224073Y-96887182D01*
X130238901Y-96870821D01*
X130255262Y-96855993D01*
X130272997Y-96842839D01*
X130291936Y-96831488D01*
X130311896Y-96822047D01*
X130332686Y-96814608D01*
X130354105Y-96809243D01*
X130375946Y-96806003D01*
X130398000Y-96804920D01*
X131348000Y-96804920D01*
X131370054Y-96806003D01*
G37*
G04 #@! TD.AperFunction*
D13*
X130873000Y-96004920D03*
X147129000Y-97488920D03*
G04 #@! TA.AperFunction,ComponentPad*
D12*
G36*
X147626054Y-95790003D02*
G01*
X147647895Y-95793243D01*
X147669314Y-95798608D01*
X147690104Y-95806047D01*
X147710064Y-95815488D01*
X147729003Y-95826839D01*
X147746738Y-95839993D01*
X147763099Y-95854821D01*
X147777927Y-95871182D01*
X147791081Y-95888917D01*
X147802432Y-95907856D01*
X147811873Y-95927816D01*
X147819312Y-95948606D01*
X147824677Y-95970025D01*
X147827917Y-95991866D01*
X147829000Y-96013920D01*
X147829000Y-96463920D01*
X147827917Y-96485974D01*
X147824677Y-96507815D01*
X147819312Y-96529234D01*
X147811873Y-96550024D01*
X147802432Y-96569984D01*
X147791081Y-96588923D01*
X147777927Y-96606658D01*
X147763099Y-96623019D01*
X147746738Y-96637847D01*
X147729003Y-96651001D01*
X147710064Y-96662352D01*
X147690104Y-96671793D01*
X147669314Y-96679232D01*
X147647895Y-96684597D01*
X147626054Y-96687837D01*
X147604000Y-96688920D01*
X146654000Y-96688920D01*
X146631946Y-96687837D01*
X146610105Y-96684597D01*
X146588686Y-96679232D01*
X146567896Y-96671793D01*
X146547936Y-96662352D01*
X146528997Y-96651001D01*
X146511262Y-96637847D01*
X146494901Y-96623019D01*
X146480073Y-96606658D01*
X146466919Y-96588923D01*
X146455568Y-96569984D01*
X146446127Y-96550024D01*
X146438688Y-96529234D01*
X146433323Y-96507815D01*
X146430083Y-96485974D01*
X146429000Y-96463920D01*
X146429000Y-96013920D01*
X146430083Y-95991866D01*
X146433323Y-95970025D01*
X146438688Y-95948606D01*
X146446127Y-95927816D01*
X146455568Y-95907856D01*
X146466919Y-95888917D01*
X146480073Y-95871182D01*
X146494901Y-95854821D01*
X146511262Y-95839993D01*
X146528997Y-95826839D01*
X146547936Y-95815488D01*
X146567896Y-95806047D01*
X146588686Y-95798608D01*
X146610105Y-95793243D01*
X146631946Y-95790003D01*
X146654000Y-95788920D01*
X147604000Y-95788920D01*
X147626054Y-95790003D01*
G37*
G04 #@! TD.AperFunction*
D14*
X140017000Y-103096920D03*
X141795000Y-103096920D03*
X137985000Y-99032920D03*
X136175000Y-98556920D03*
X128665000Y-86000920D03*
X129095000Y-87602920D03*
X143065000Y-102588920D03*
X136969000Y-98778920D03*
X148399000Y-100810920D03*
X137985000Y-103350954D03*
X146113000Y-100810920D03*
X140017000Y-98524920D03*
D15*
X138193910Y-103559830D02*
X137985000Y-103350920D01*
X137985000Y-103350920D02*
X137985000Y-103350954D01*
X148399000Y-101259932D02*
X148399000Y-100810920D01*
X146099102Y-103559830D02*
X148399000Y-101259932D01*
X138493000Y-103858920D02*
X138239000Y-103604920D01*
X146144192Y-103604920D02*
X145890192Y-103858920D01*
X145890192Y-103858920D02*
X138493000Y-103858920D01*
X143827000Y-98524920D02*
X146113000Y-100810920D01*
X140017000Y-98524920D02*
X143827000Y-98524920D01*
G36*
X128878577Y-85705616D02*
G01*
X128844692Y-85853924D01*
X128838233Y-86082333D01*
X128876458Y-86307613D01*
X128957898Y-86521107D01*
X128988964Y-86579227D01*
X129204924Y-86617391D01*
X129821395Y-86000920D01*
X129807253Y-85986778D01*
X129986858Y-85807173D01*
X130001000Y-85821315D01*
X130015143Y-85807173D01*
X130194748Y-85986778D01*
X130180605Y-86000920D01*
X130797076Y-86617391D01*
X131013036Y-86579227D01*
X131106412Y-86370676D01*
X131130266Y-86266274D01*
X131198113Y-86430072D01*
X131297264Y-86578461D01*
X131423459Y-86704656D01*
X131571848Y-86803807D01*
X131736729Y-86872103D01*
X131911767Y-86906920D01*
X132090233Y-86906920D01*
X132265271Y-86872103D01*
X132430152Y-86803807D01*
X132578541Y-86704656D01*
X132704736Y-86578461D01*
X132803887Y-86430072D01*
X132872183Y-86265191D01*
X132907000Y-86090153D01*
X132907000Y-85911687D01*
X132877213Y-85761935D01*
X133124096Y-85765412D01*
X133095000Y-85911687D01*
X133095000Y-86090153D01*
X133129817Y-86265191D01*
X133198113Y-86430072D01*
X133297264Y-86578461D01*
X133423459Y-86704656D01*
X133571848Y-86803807D01*
X133736729Y-86872103D01*
X133911767Y-86906920D01*
X134090233Y-86906920D01*
X134265271Y-86872103D01*
X134430152Y-86803807D01*
X134578541Y-86704656D01*
X134704736Y-86578461D01*
X134803887Y-86430072D01*
X134872183Y-86265191D01*
X134907000Y-86090153D01*
X134907000Y-85911687D01*
X134882832Y-85790183D01*
X135118508Y-85793503D01*
X135095000Y-85911687D01*
X135095000Y-86090153D01*
X135129817Y-86265191D01*
X135198113Y-86430072D01*
X135297264Y-86578461D01*
X135423459Y-86704656D01*
X135571848Y-86803807D01*
X135736729Y-86872103D01*
X135911767Y-86906920D01*
X136090233Y-86906920D01*
X136265271Y-86872103D01*
X136430152Y-86803807D01*
X136578541Y-86704656D01*
X136704736Y-86578461D01*
X136803887Y-86430072D01*
X136872183Y-86265191D01*
X136907000Y-86090153D01*
X136907000Y-85911687D01*
X136888450Y-85818431D01*
X137112921Y-85821593D01*
X137095000Y-85911687D01*
X137095000Y-86090153D01*
X137129817Y-86265191D01*
X137198113Y-86430072D01*
X137297264Y-86578461D01*
X137423459Y-86704656D01*
X137571848Y-86803807D01*
X137736729Y-86872103D01*
X137911767Y-86906920D01*
X138090233Y-86906920D01*
X138265271Y-86872103D01*
X138430152Y-86803807D01*
X138578541Y-86704656D01*
X138704736Y-86578461D01*
X138803887Y-86430072D01*
X138872183Y-86265191D01*
X138907000Y-86090153D01*
X138907000Y-85911687D01*
X138894069Y-85846680D01*
X139107333Y-85849683D01*
X139095000Y-85911687D01*
X139095000Y-86090153D01*
X139129817Y-86265191D01*
X139198113Y-86430072D01*
X139297264Y-86578461D01*
X139423459Y-86704656D01*
X139571848Y-86803807D01*
X139736729Y-86872103D01*
X139911767Y-86906920D01*
X140090233Y-86906920D01*
X140265271Y-86872103D01*
X140430152Y-86803807D01*
X140578541Y-86704656D01*
X140704736Y-86578461D01*
X140803887Y-86430072D01*
X140872183Y-86265191D01*
X140907000Y-86090153D01*
X140907000Y-85911687D01*
X140899688Y-85874928D01*
X141101746Y-85877774D01*
X141095000Y-85911687D01*
X141095000Y-86090153D01*
X141129817Y-86265191D01*
X141198113Y-86430072D01*
X141297264Y-86578461D01*
X141423459Y-86704656D01*
X141571848Y-86803807D01*
X141736729Y-86872103D01*
X141911767Y-86906920D01*
X142090233Y-86906920D01*
X142265271Y-86872103D01*
X142430152Y-86803807D01*
X142578541Y-86704656D01*
X142704736Y-86578461D01*
X142803887Y-86430072D01*
X142872183Y-86265191D01*
X142907000Y-86090153D01*
X142907000Y-85911687D01*
X142905307Y-85903176D01*
X143096158Y-85905864D01*
X143095000Y-85911687D01*
X143095000Y-86090153D01*
X143129817Y-86265191D01*
X143198113Y-86430072D01*
X143297264Y-86578461D01*
X143423459Y-86704656D01*
X143571848Y-86803807D01*
X143736729Y-86872103D01*
X143911767Y-86906920D01*
X144090233Y-86906920D01*
X144265271Y-86872103D01*
X144430152Y-86803807D01*
X144578541Y-86704656D01*
X144704736Y-86578461D01*
X144803887Y-86430072D01*
X144872183Y-86265191D01*
X144907000Y-86090153D01*
X144907000Y-85931369D01*
X145095000Y-85934017D01*
X145095000Y-86090153D01*
X145129817Y-86265191D01*
X145198113Y-86430072D01*
X145297264Y-86578461D01*
X145423459Y-86704656D01*
X145571848Y-86803807D01*
X145736729Y-86872103D01*
X145911767Y-86906920D01*
X146090233Y-86906920D01*
X146265271Y-86872103D01*
X146430152Y-86803807D01*
X146578541Y-86704656D01*
X146704736Y-86578461D01*
X146803887Y-86430072D01*
X146868552Y-86273957D01*
X147093157Y-86408721D01*
X147093157Y-86525920D01*
X147100513Y-86600609D01*
X147122299Y-86672428D01*
X147157678Y-86738616D01*
X147205289Y-86796631D01*
X147263304Y-86844242D01*
X147329492Y-86879621D01*
X147401311Y-86901407D01*
X147476000Y-86908763D01*
X147926561Y-86908763D01*
X150050000Y-88182827D01*
X150050000Y-104747920D01*
X128460000Y-104747920D01*
X128460000Y-103282158D01*
X137286500Y-103282158D01*
X137286500Y-103419750D01*
X137313343Y-103554699D01*
X137365997Y-103681818D01*
X137442439Y-103796222D01*
X137539732Y-103893515D01*
X137654136Y-103969957D01*
X137781255Y-104022611D01*
X137916204Y-104049454D01*
X137965114Y-104049454D01*
X138116145Y-104200485D01*
X138132052Y-104219868D01*
X138209405Y-104283349D01*
X138297657Y-104330521D01*
X138393415Y-104359569D01*
X138468053Y-104366920D01*
X138468055Y-104366920D01*
X138492999Y-104369377D01*
X138517943Y-104366920D01*
X145865248Y-104366920D01*
X145890192Y-104369377D01*
X145915136Y-104366920D01*
X145915139Y-104366920D01*
X145989777Y-104359569D01*
X146085535Y-104330521D01*
X146173787Y-104283349D01*
X146251140Y-104219868D01*
X146267047Y-104200485D01*
X146521042Y-103946490D01*
X146568621Y-103888515D01*
X146615792Y-103800265D01*
X146632645Y-103744707D01*
X148740571Y-101636782D01*
X148759948Y-101620880D01*
X148778624Y-101598122D01*
X148823429Y-101543528D01*
X148870600Y-101455276D01*
X148870601Y-101455275D01*
X148899649Y-101359517D01*
X148906359Y-101291390D01*
X148941561Y-101256188D01*
X149018003Y-101141784D01*
X149070657Y-101014665D01*
X149097500Y-100879716D01*
X149097500Y-100742124D01*
X149070657Y-100607175D01*
X149018003Y-100480056D01*
X148941561Y-100365652D01*
X148844268Y-100268359D01*
X148729864Y-100191917D01*
X148602745Y-100139263D01*
X148467796Y-100112420D01*
X148330204Y-100112420D01*
X148195255Y-100139263D01*
X148068136Y-100191917D01*
X147953732Y-100268359D01*
X147856439Y-100365652D01*
X147779997Y-100480056D01*
X147727343Y-100607175D01*
X147700500Y-100742124D01*
X147700500Y-100879716D01*
X147727343Y-101014665D01*
X147779997Y-101141784D01*
X147787499Y-101153012D01*
X145722252Y-103218260D01*
X145674673Y-103276235D01*
X145634754Y-103350920D01*
X138703420Y-103350920D01*
X138683500Y-103331000D01*
X138683500Y-103282158D01*
X138656657Y-103147209D01*
X138604003Y-103020090D01*
X138527561Y-102905686D01*
X138430268Y-102808393D01*
X138315864Y-102731951D01*
X138188745Y-102679297D01*
X138053796Y-102652454D01*
X137916204Y-102652454D01*
X137781255Y-102679297D01*
X137654136Y-102731951D01*
X137539732Y-102808393D01*
X137442439Y-102905686D01*
X137365997Y-103020090D01*
X137313343Y-103147209D01*
X137286500Y-103282158D01*
X128460000Y-103282158D01*
X128460000Y-98456124D01*
X139318500Y-98456124D01*
X139318500Y-98593716D01*
X139345343Y-98728665D01*
X139397997Y-98855784D01*
X139474439Y-98970188D01*
X139571732Y-99067481D01*
X139686136Y-99143923D01*
X139813255Y-99196577D01*
X139948204Y-99223420D01*
X140085796Y-99223420D01*
X140220745Y-99196577D01*
X140347864Y-99143923D01*
X140462268Y-99067481D01*
X140496829Y-99032920D01*
X143616580Y-99032920D01*
X145414500Y-100830841D01*
X145414500Y-100879716D01*
X145441343Y-101014665D01*
X145493997Y-101141784D01*
X145570439Y-101256188D01*
X145667732Y-101353481D01*
X145782136Y-101429923D01*
X145909255Y-101482577D01*
X146044204Y-101509420D01*
X146181796Y-101509420D01*
X146316745Y-101482577D01*
X146443864Y-101429923D01*
X146558268Y-101353481D01*
X146655561Y-101256188D01*
X146732003Y-101141784D01*
X146784657Y-101014665D01*
X146811500Y-100879716D01*
X146811500Y-100742124D01*
X146784657Y-100607175D01*
X146732003Y-100480056D01*
X146655561Y-100365652D01*
X146558268Y-100268359D01*
X146443864Y-100191917D01*
X146316745Y-100139263D01*
X146181796Y-100112420D01*
X146132921Y-100112420D01*
X144203855Y-98183355D01*
X144187948Y-98163972D01*
X144110595Y-98100491D01*
X144022343Y-98053319D01*
X143926585Y-98024271D01*
X143851947Y-98016920D01*
X143851944Y-98016920D01*
X143827000Y-98014463D01*
X143802056Y-98016920D01*
X140496829Y-98016920D01*
X140462268Y-97982359D01*
X140347864Y-97905917D01*
X140220745Y-97853263D01*
X140085796Y-97826420D01*
X139948204Y-97826420D01*
X139813255Y-97853263D01*
X139686136Y-97905917D01*
X139571732Y-97982359D01*
X139474439Y-98079652D01*
X139397997Y-98194056D01*
X139345343Y-98321175D01*
X139318500Y-98456124D01*
X128460000Y-98456124D01*
X128460000Y-96004920D01*
X129787980Y-96004920D01*
X129804025Y-96167824D01*
X129851542Y-96324468D01*
X129928706Y-96468832D01*
X130008975Y-96566639D01*
X129968190Y-96600110D01*
X129892597Y-96692221D01*
X129836426Y-96797309D01*
X129801837Y-96911336D01*
X129790157Y-97029920D01*
X129790157Y-97479920D01*
X129801837Y-97598504D01*
X129836426Y-97712531D01*
X129892597Y-97817619D01*
X129968190Y-97909730D01*
X130060301Y-97985323D01*
X130165389Y-98041494D01*
X130279416Y-98076083D01*
X130398000Y-98087763D01*
X131348000Y-98087763D01*
X131466584Y-98076083D01*
X131580611Y-98041494D01*
X131685699Y-97985323D01*
X131777810Y-97909730D01*
X131853403Y-97817619D01*
X131909574Y-97712531D01*
X131944163Y-97598504D01*
X131954956Y-97488920D01*
X146043980Y-97488920D01*
X146060025Y-97651824D01*
X146107542Y-97808468D01*
X146184706Y-97952832D01*
X146288552Y-98079368D01*
X146415088Y-98183214D01*
X146559452Y-98260378D01*
X146716096Y-98307895D01*
X146838185Y-98319920D01*
X147419815Y-98319920D01*
X147541904Y-98307895D01*
X147698548Y-98260378D01*
X147842912Y-98183214D01*
X147969448Y-98079368D01*
X148073294Y-97952832D01*
X148150458Y-97808468D01*
X148197975Y-97651824D01*
X148214020Y-97488920D01*
X148197975Y-97326016D01*
X148150458Y-97169372D01*
X148073294Y-97025008D01*
X147993025Y-96927201D01*
X148033810Y-96893730D01*
X148109403Y-96801619D01*
X148165574Y-96696531D01*
X148200163Y-96582504D01*
X148211843Y-96463920D01*
X148211843Y-96013920D01*
X148200163Y-95895336D01*
X148165574Y-95781309D01*
X148109403Y-95676221D01*
X148033810Y-95584110D01*
X147941699Y-95508517D01*
X147836611Y-95452346D01*
X147722584Y-95417757D01*
X147604000Y-95406077D01*
X146654000Y-95406077D01*
X146535416Y-95417757D01*
X146421389Y-95452346D01*
X146316301Y-95508517D01*
X146224190Y-95584110D01*
X146148597Y-95676221D01*
X146092426Y-95781309D01*
X146057837Y-95895336D01*
X146046157Y-96013920D01*
X146046157Y-96463920D01*
X146057837Y-96582504D01*
X146092426Y-96696531D01*
X146148597Y-96801619D01*
X146224190Y-96893730D01*
X146264975Y-96927201D01*
X146184706Y-97025008D01*
X146107542Y-97169372D01*
X146060025Y-97326016D01*
X146043980Y-97488920D01*
X131954956Y-97488920D01*
X131955843Y-97479920D01*
X131955843Y-97029920D01*
X131944163Y-96911336D01*
X131909574Y-96797309D01*
X131853403Y-96692221D01*
X131777810Y-96600110D01*
X131737025Y-96566639D01*
X131817294Y-96468832D01*
X131894458Y-96324468D01*
X131941975Y-96167824D01*
X131958020Y-96004920D01*
X131941975Y-95842016D01*
X131894458Y-95685372D01*
X131817294Y-95541008D01*
X131713448Y-95414472D01*
X131586912Y-95310626D01*
X131442548Y-95233462D01*
X131285904Y-95185945D01*
X131163815Y-95173920D01*
X130582185Y-95173920D01*
X130460096Y-95185945D01*
X130303452Y-95233462D01*
X130159088Y-95310626D01*
X130032552Y-95414472D01*
X129928706Y-95541008D01*
X129851542Y-95685372D01*
X129804025Y-95842016D01*
X129787980Y-96004920D01*
X128460000Y-96004920D01*
X128460000Y-86796996D01*
X129384529Y-86796996D01*
X129422693Y-87012956D01*
X129631244Y-87106332D01*
X129854004Y-87157228D01*
X130082413Y-87163687D01*
X130307693Y-87125462D01*
X130521187Y-87044022D01*
X130579307Y-87012956D01*
X130617471Y-86796996D01*
X130001000Y-86180525D01*
X129384529Y-86796996D01*
X128460000Y-86796996D01*
X128460000Y-85699721D01*
X128878577Y-85705616D01*
G37*
X128878577Y-85705616D02*
X128844692Y-85853924D01*
X128838233Y-86082333D01*
X128876458Y-86307613D01*
X128957898Y-86521107D01*
X128988964Y-86579227D01*
X129204924Y-86617391D01*
X129821395Y-86000920D01*
X129807253Y-85986778D01*
X129986858Y-85807173D01*
X130001000Y-85821315D01*
X130015143Y-85807173D01*
X130194748Y-85986778D01*
X130180605Y-86000920D01*
X130797076Y-86617391D01*
X131013036Y-86579227D01*
X131106412Y-86370676D01*
X131130266Y-86266274D01*
X131198113Y-86430072D01*
X131297264Y-86578461D01*
X131423459Y-86704656D01*
X131571848Y-86803807D01*
X131736729Y-86872103D01*
X131911767Y-86906920D01*
X132090233Y-86906920D01*
X132265271Y-86872103D01*
X132430152Y-86803807D01*
X132578541Y-86704656D01*
X132704736Y-86578461D01*
X132803887Y-86430072D01*
X132872183Y-86265191D01*
X132907000Y-86090153D01*
X132907000Y-85911687D01*
X132877213Y-85761935D01*
X133124096Y-85765412D01*
X133095000Y-85911687D01*
X133095000Y-86090153D01*
X133129817Y-86265191D01*
X133198113Y-86430072D01*
X133297264Y-86578461D01*
X133423459Y-86704656D01*
X133571848Y-86803807D01*
X133736729Y-86872103D01*
X133911767Y-86906920D01*
X134090233Y-86906920D01*
X134265271Y-86872103D01*
X134430152Y-86803807D01*
X134578541Y-86704656D01*
X134704736Y-86578461D01*
X134803887Y-86430072D01*
X134872183Y-86265191D01*
X134907000Y-86090153D01*
X134907000Y-85911687D01*
X134882832Y-85790183D01*
X135118508Y-85793503D01*
X135095000Y-85911687D01*
X135095000Y-86090153D01*
X135129817Y-86265191D01*
X135198113Y-86430072D01*
X135297264Y-86578461D01*
X135423459Y-86704656D01*
X135571848Y-86803807D01*
X135736729Y-86872103D01*
X135911767Y-86906920D01*
X136090233Y-86906920D01*
X136265271Y-86872103D01*
X136430152Y-86803807D01*
X136578541Y-86704656D01*
X136704736Y-86578461D01*
X136803887Y-86430072D01*
X136872183Y-86265191D01*
X136907000Y-86090153D01*
X136907000Y-85911687D01*
X136888450Y-85818431D01*
X137112921Y-85821593D01*
X137095000Y-85911687D01*
X137095000Y-86090153D01*
X137129817Y-86265191D01*
X137198113Y-86430072D01*
X137297264Y-86578461D01*
X137423459Y-86704656D01*
X137571848Y-86803807D01*
X137736729Y-86872103D01*
X137911767Y-86906920D01*
X138090233Y-86906920D01*
X138265271Y-86872103D01*
X138430152Y-86803807D01*
X138578541Y-86704656D01*
X138704736Y-86578461D01*
X138803887Y-86430072D01*
X138872183Y-86265191D01*
X138907000Y-86090153D01*
X138907000Y-85911687D01*
X138894069Y-85846680D01*
X139107333Y-85849683D01*
X139095000Y-85911687D01*
X139095000Y-86090153D01*
X139129817Y-86265191D01*
X139198113Y-86430072D01*
X139297264Y-86578461D01*
X139423459Y-86704656D01*
X139571848Y-86803807D01*
X139736729Y-86872103D01*
X139911767Y-86906920D01*
X140090233Y-86906920D01*
X140265271Y-86872103D01*
X140430152Y-86803807D01*
X140578541Y-86704656D01*
X140704736Y-86578461D01*
X140803887Y-86430072D01*
X140872183Y-86265191D01*
X140907000Y-86090153D01*
X140907000Y-85911687D01*
X140899688Y-85874928D01*
X141101746Y-85877774D01*
X141095000Y-85911687D01*
X141095000Y-86090153D01*
X141129817Y-86265191D01*
X141198113Y-86430072D01*
X141297264Y-86578461D01*
X141423459Y-86704656D01*
X141571848Y-86803807D01*
X141736729Y-86872103D01*
X141911767Y-86906920D01*
X142090233Y-86906920D01*
X142265271Y-86872103D01*
X142430152Y-86803807D01*
X142578541Y-86704656D01*
X142704736Y-86578461D01*
X142803887Y-86430072D01*
X142872183Y-86265191D01*
X142907000Y-86090153D01*
X142907000Y-85911687D01*
X142905307Y-85903176D01*
X143096158Y-85905864D01*
X143095000Y-85911687D01*
X143095000Y-86090153D01*
X143129817Y-86265191D01*
X143198113Y-86430072D01*
X143297264Y-86578461D01*
X143423459Y-86704656D01*
X143571848Y-86803807D01*
X143736729Y-86872103D01*
X143911767Y-86906920D01*
X144090233Y-86906920D01*
X144265271Y-86872103D01*
X144430152Y-86803807D01*
X144578541Y-86704656D01*
X144704736Y-86578461D01*
X144803887Y-86430072D01*
X144872183Y-86265191D01*
X144907000Y-86090153D01*
X144907000Y-85931369D01*
X145095000Y-85934017D01*
X145095000Y-86090153D01*
X145129817Y-86265191D01*
X145198113Y-86430072D01*
X145297264Y-86578461D01*
X145423459Y-86704656D01*
X145571848Y-86803807D01*
X145736729Y-86872103D01*
X145911767Y-86906920D01*
X146090233Y-86906920D01*
X146265271Y-86872103D01*
X146430152Y-86803807D01*
X146578541Y-86704656D01*
X146704736Y-86578461D01*
X146803887Y-86430072D01*
X146868552Y-86273957D01*
X147093157Y-86408721D01*
X147093157Y-86525920D01*
X147100513Y-86600609D01*
X147122299Y-86672428D01*
X147157678Y-86738616D01*
X147205289Y-86796631D01*
X147263304Y-86844242D01*
X147329492Y-86879621D01*
X147401311Y-86901407D01*
X147476000Y-86908763D01*
X147926561Y-86908763D01*
X150050000Y-88182827D01*
X150050000Y-104747920D01*
X128460000Y-104747920D01*
X128460000Y-103282158D01*
X137286500Y-103282158D01*
X137286500Y-103419750D01*
X137313343Y-103554699D01*
X137365997Y-103681818D01*
X137442439Y-103796222D01*
X137539732Y-103893515D01*
X137654136Y-103969957D01*
X137781255Y-104022611D01*
X137916204Y-104049454D01*
X137965114Y-104049454D01*
X138116145Y-104200485D01*
X138132052Y-104219868D01*
X138209405Y-104283349D01*
X138297657Y-104330521D01*
X138393415Y-104359569D01*
X138468053Y-104366920D01*
X138468055Y-104366920D01*
X138492999Y-104369377D01*
X138517943Y-104366920D01*
X145865248Y-104366920D01*
X145890192Y-104369377D01*
X145915136Y-104366920D01*
X145915139Y-104366920D01*
X145989777Y-104359569D01*
X146085535Y-104330521D01*
X146173787Y-104283349D01*
X146251140Y-104219868D01*
X146267047Y-104200485D01*
X146521042Y-103946490D01*
X146568621Y-103888515D01*
X146615792Y-103800265D01*
X146632645Y-103744707D01*
X148740571Y-101636782D01*
X148759948Y-101620880D01*
X148778624Y-101598122D01*
X148823429Y-101543528D01*
X148870600Y-101455276D01*
X148870601Y-101455275D01*
X148899649Y-101359517D01*
X148906359Y-101291390D01*
X148941561Y-101256188D01*
X149018003Y-101141784D01*
X149070657Y-101014665D01*
X149097500Y-100879716D01*
X149097500Y-100742124D01*
X149070657Y-100607175D01*
X149018003Y-100480056D01*
X148941561Y-100365652D01*
X148844268Y-100268359D01*
X148729864Y-100191917D01*
X148602745Y-100139263D01*
X148467796Y-100112420D01*
X148330204Y-100112420D01*
X148195255Y-100139263D01*
X148068136Y-100191917D01*
X147953732Y-100268359D01*
X147856439Y-100365652D01*
X147779997Y-100480056D01*
X147727343Y-100607175D01*
X147700500Y-100742124D01*
X147700500Y-100879716D01*
X147727343Y-101014665D01*
X147779997Y-101141784D01*
X147787499Y-101153012D01*
X145722252Y-103218260D01*
X145674673Y-103276235D01*
X145634754Y-103350920D01*
X138703420Y-103350920D01*
X138683500Y-103331000D01*
X138683500Y-103282158D01*
X138656657Y-103147209D01*
X138604003Y-103020090D01*
X138527561Y-102905686D01*
X138430268Y-102808393D01*
X138315864Y-102731951D01*
X138188745Y-102679297D01*
X138053796Y-102652454D01*
X137916204Y-102652454D01*
X137781255Y-102679297D01*
X137654136Y-102731951D01*
X137539732Y-102808393D01*
X137442439Y-102905686D01*
X137365997Y-103020090D01*
X137313343Y-103147209D01*
X137286500Y-103282158D01*
X128460000Y-103282158D01*
X128460000Y-98456124D01*
X139318500Y-98456124D01*
X139318500Y-98593716D01*
X139345343Y-98728665D01*
X139397997Y-98855784D01*
X139474439Y-98970188D01*
X139571732Y-99067481D01*
X139686136Y-99143923D01*
X139813255Y-99196577D01*
X139948204Y-99223420D01*
X140085796Y-99223420D01*
X140220745Y-99196577D01*
X140347864Y-99143923D01*
X140462268Y-99067481D01*
X140496829Y-99032920D01*
X143616580Y-99032920D01*
X145414500Y-100830841D01*
X145414500Y-100879716D01*
X145441343Y-101014665D01*
X145493997Y-101141784D01*
X145570439Y-101256188D01*
X145667732Y-101353481D01*
X145782136Y-101429923D01*
X145909255Y-101482577D01*
X146044204Y-101509420D01*
X146181796Y-101509420D01*
X146316745Y-101482577D01*
X146443864Y-101429923D01*
X146558268Y-101353481D01*
X146655561Y-101256188D01*
X146732003Y-101141784D01*
X146784657Y-101014665D01*
X146811500Y-100879716D01*
X146811500Y-100742124D01*
X146784657Y-100607175D01*
X146732003Y-100480056D01*
X146655561Y-100365652D01*
X146558268Y-100268359D01*
X146443864Y-100191917D01*
X146316745Y-100139263D01*
X146181796Y-100112420D01*
X146132921Y-100112420D01*
X144203855Y-98183355D01*
X144187948Y-98163972D01*
X144110595Y-98100491D01*
X144022343Y-98053319D01*
X143926585Y-98024271D01*
X143851947Y-98016920D01*
X143851944Y-98016920D01*
X143827000Y-98014463D01*
X143802056Y-98016920D01*
X140496829Y-98016920D01*
X140462268Y-97982359D01*
X140347864Y-97905917D01*
X140220745Y-97853263D01*
X140085796Y-97826420D01*
X139948204Y-97826420D01*
X139813255Y-97853263D01*
X139686136Y-97905917D01*
X139571732Y-97982359D01*
X139474439Y-98079652D01*
X139397997Y-98194056D01*
X139345343Y-98321175D01*
X139318500Y-98456124D01*
X128460000Y-98456124D01*
X128460000Y-96004920D01*
X129787980Y-96004920D01*
X129804025Y-96167824D01*
X129851542Y-96324468D01*
X129928706Y-96468832D01*
X130008975Y-96566639D01*
X129968190Y-96600110D01*
X129892597Y-96692221D01*
X129836426Y-96797309D01*
X129801837Y-96911336D01*
X129790157Y-97029920D01*
X129790157Y-97479920D01*
X129801837Y-97598504D01*
X129836426Y-97712531D01*
X129892597Y-97817619D01*
X129968190Y-97909730D01*
X130060301Y-97985323D01*
X130165389Y-98041494D01*
X130279416Y-98076083D01*
X130398000Y-98087763D01*
X131348000Y-98087763D01*
X131466584Y-98076083D01*
X131580611Y-98041494D01*
X131685699Y-97985323D01*
X131777810Y-97909730D01*
X131853403Y-97817619D01*
X131909574Y-97712531D01*
X131944163Y-97598504D01*
X131954956Y-97488920D01*
X146043980Y-97488920D01*
X146060025Y-97651824D01*
X146107542Y-97808468D01*
X146184706Y-97952832D01*
X146288552Y-98079368D01*
X146415088Y-98183214D01*
X146559452Y-98260378D01*
X146716096Y-98307895D01*
X146838185Y-98319920D01*
X147419815Y-98319920D01*
X147541904Y-98307895D01*
X147698548Y-98260378D01*
X147842912Y-98183214D01*
X147969448Y-98079368D01*
X148073294Y-97952832D01*
X148150458Y-97808468D01*
X148197975Y-97651824D01*
X148214020Y-97488920D01*
X148197975Y-97326016D01*
X148150458Y-97169372D01*
X148073294Y-97025008D01*
X147993025Y-96927201D01*
X148033810Y-96893730D01*
X148109403Y-96801619D01*
X148165574Y-96696531D01*
X148200163Y-96582504D01*
X148211843Y-96463920D01*
X148211843Y-96013920D01*
X148200163Y-95895336D01*
X148165574Y-95781309D01*
X148109403Y-95676221D01*
X148033810Y-95584110D01*
X147941699Y-95508517D01*
X147836611Y-95452346D01*
X147722584Y-95417757D01*
X147604000Y-95406077D01*
X146654000Y-95406077D01*
X146535416Y-95417757D01*
X146421389Y-95452346D01*
X146316301Y-95508517D01*
X146224190Y-95584110D01*
X146148597Y-95676221D01*
X146092426Y-95781309D01*
X146057837Y-95895336D01*
X146046157Y-96013920D01*
X146046157Y-96463920D01*
X146057837Y-96582504D01*
X146092426Y-96696531D01*
X146148597Y-96801619D01*
X146224190Y-96893730D01*
X146264975Y-96927201D01*
X146184706Y-97025008D01*
X146107542Y-97169372D01*
X146060025Y-97326016D01*
X146043980Y-97488920D01*
X131954956Y-97488920D01*
X131955843Y-97479920D01*
X131955843Y-97029920D01*
X131944163Y-96911336D01*
X131909574Y-96797309D01*
X131853403Y-96692221D01*
X131777810Y-96600110D01*
X131737025Y-96566639D01*
X131817294Y-96468832D01*
X131894458Y-96324468D01*
X131941975Y-96167824D01*
X131958020Y-96004920D01*
X131941975Y-95842016D01*
X131894458Y-95685372D01*
X131817294Y-95541008D01*
X131713448Y-95414472D01*
X131586912Y-95310626D01*
X131442548Y-95233462D01*
X131285904Y-95185945D01*
X131163815Y-95173920D01*
X130582185Y-95173920D01*
X130460096Y-95185945D01*
X130303452Y-95233462D01*
X130159088Y-95310626D01*
X130032552Y-95414472D01*
X129928706Y-95541008D01*
X129851542Y-95685372D01*
X129804025Y-95842016D01*
X129787980Y-96004920D01*
X128460000Y-96004920D01*
X128460000Y-86796996D01*
X129384529Y-86796996D01*
X129422693Y-87012956D01*
X129631244Y-87106332D01*
X129854004Y-87157228D01*
X130082413Y-87163687D01*
X130307693Y-87125462D01*
X130521187Y-87044022D01*
X130579307Y-87012956D01*
X130617471Y-86796996D01*
X130001000Y-86180525D01*
X129384529Y-86796996D01*
X128460000Y-86796996D01*
X128460000Y-85699721D01*
X128878577Y-85705616D01*
M02*
