M48
; DRILL file {KiCad (5.1.5)-3} date 07-Dec-19 1:28:38 PM
; FORMAT={-:-/ absolute / inch / decimal}
; #@! TF.CreationDate,2019-12-07T13:28:38+02:00
; #@! TF.GenerationSoftware,Kicad,Pcbnew,(5.1.5)-3
FMAT,2
INCH
T1C0.0150
T2C0.0236
T3C0.0315
%
G90
G05
T1
X5.0656Y-3.3859
X5.0825Y-3.4489
X5.3612Y-3.8802
X5.3925Y-3.8889
X5.4325Y-3.8989
X5.4325Y-4.0689
X5.5125Y-3.8789
X5.5125Y-4.0589
X5.5825Y-4.0589
X5.6325Y-4.0389
X5.7525Y-3.9689
X5.8425Y-3.9689
T2
X5.7925Y-3.7889
X5.7925Y-3.8381
X5.1525Y-3.7797
X5.1525Y-3.8289
T3
X5.1181Y-4.252
X5.1969Y-4.252
X5.2756Y-4.252
X5.3544Y-4.252
X5.4331Y-4.252
X5.5119Y-4.252
X5.5906Y-4.252
X5.6693Y-4.252
X5.7481Y-4.252
X5.8268Y-4.252
X5.1181Y-3.3859
X5.1969Y-3.3859
X5.2756Y-3.3859
X5.3544Y-3.3859
X5.4331Y-3.3859
X5.5119Y-3.3859
X5.5906Y-3.3859
X5.6693Y-3.3859
X5.7481Y-3.3859
X5.8268Y-3.3859
T0
M30
